<svg xmlns="http://www.w3.org/2000/svg" width="556" height="350" fill="none"><rect width="556" height="350" fill="#FA4616" rx="16"/><path fill="#FAFAFA" d="M201.221 117.811c-14.791 0-24.987 6.49-32.703 13.829 0 0-3.116 2.953-3.076 3.043l32.405 32.405 32.4-32.405c-6.136-8.447-17.704-16.872-29.026-16.872Zm80.009.004c-14.791 0-24.987 6.49-32.704 13.83 0 0-2.845 2.873-2.975 3.042l-40.054 40.06 32.355 32.354 72.403-72.414c-6.136-8.447-17.698-16.872-29.025-16.872Zm80.244-.004c-14.791 0-24.987 6.49-32.703 13.829 0 0-2.964 2.897-3.076 3.043l-80.125 80.136 8.481 8.481c13.121 13.121 34.599 13.121 47.719 0l88.629-88.617h.101c-6.136-8.447-17.699-16.872-29.026-16.872Z"/></svg>